<?xml version="1.0" encoding="utf-8"?>
<!-- Generator: Adobe Illustrator 15.0.0, SVG Export Plug-In . SVG Version: 6.00 Build 0)  -->
<!DOCTYPE svg PUBLIC "-//W3C//DTD SVG 1.1//EN" "http://www.w3.org/Graphics/SVG/1.1/DTD/svg11.dtd">
<svg version="1.1" id="Layer_1" xmlns="http://www.w3.org/2000/svg" xmlns:xlink="http://www.w3.org/1999/xlink" x="0px" y="0px"
	 width="60px" height="60px" viewBox="0 0 60 60" enable-background="new 0 0 60 60" xml:space="preserve">
<rect x="0.5" y="-0.235" fill="#CCCCCC" width="59.774" height="60.235"/>
<g>
	<path fill="#FFFFFF" d="M7.668,32.804v-3.107h0.627v3.107H7.668z"/>
	<path fill="#FFFFFF" d="M8.885,32.804v-3.107h0.939l0.564,2.12l0.558-2.12h0.94v3.107h-0.583v-2.447l-0.616,2.447h-0.604
		l-0.615-2.447v2.447H8.885z"/>
	<path fill="#FFFFFF" d="M15.311,32.804h-0.683l-0.271-0.706h-1.242l-0.256,0.706h-0.665l1.21-3.107h0.664L15.311,32.804z
		 M14.156,31.574l-0.429-1.153l-0.419,1.153H14.156z"/>
	<path fill="#FFFFFF" d="M17.088,31.661v-0.523h1.353v1.237c-0.131,0.127-0.322,0.238-0.571,0.336s-0.501,0.146-0.758,0.146
		c-0.325,0-0.608-0.068-0.85-0.205c-0.242-0.136-0.424-0.331-0.545-0.584c-0.122-0.254-0.182-0.53-0.182-0.828
		c0-0.323,0.067-0.611,0.203-0.863c0.136-0.251,0.334-0.444,0.596-0.578c0.199-0.104,0.447-0.155,0.744-0.155
		c0.386,0,0.687,0.081,0.903,0.243c0.217,0.161,0.357,0.385,0.419,0.67l-0.624,0.117c-0.043-0.153-0.126-0.273-0.247-0.361
		c-0.121-0.089-0.271-0.133-0.452-0.133c-0.274,0-0.492,0.087-0.654,0.26c-0.161,0.174-0.242,0.432-0.242,0.774
		c0,0.369,0.082,0.645,0.245,0.829c0.164,0.185,0.38,0.277,0.645,0.277c0.131,0,0.263-0.026,0.395-0.078
		c0.132-0.051,0.246-0.113,0.34-0.187v-0.395H17.088z"/>
	<path fill="#FFFFFF" d="M19.02,32.804v-3.107h2.304v0.525h-1.677v0.688h1.56v0.524h-1.56v0.845h1.736v0.524H19.02z"/>
	<path fill="#FFFFFF" d="M23.121,32.804v-3.107h1.007c0.381,0,0.63,0.016,0.746,0.046c0.178,0.047,0.327,0.148,0.447,0.304
		s0.181,0.358,0.181,0.605c0,0.19-0.035,0.351-0.104,0.48c-0.07,0.131-0.157,0.232-0.264,0.307s-0.215,0.123-0.325,0.146
		c-0.15,0.03-0.367,0.045-0.651,0.045h-0.409v1.173H23.121z M23.748,30.222v0.882h0.343c0.248,0,0.413-0.017,0.496-0.049
		s0.149-0.083,0.196-0.152c0.047-0.069,0.071-0.149,0.071-0.242c0-0.112-0.034-0.206-0.1-0.279c-0.067-0.074-0.15-0.12-0.253-0.138
		c-0.074-0.015-0.225-0.021-0.451-0.021H23.748z"/>
	<path fill="#FFFFFF" d="M26.033,32.804v-3.082h0.627v2.558h1.56v0.524H26.033z"/>
	<path fill="#FFFFFF" d="M31.469,32.804h-0.682l-0.271-0.706h-1.242l-0.257,0.706h-0.665l1.21-3.107h0.663L31.469,32.804z
		 M30.314,31.574l-0.428-1.153l-0.42,1.153H30.314z"/>
	<path fill="#FFFFFF" d="M33.79,31.661l0.608,0.192c-0.093,0.34-0.248,0.592-0.465,0.756s-0.492,0.247-0.826,0.247
		c-0.412,0-0.752-0.141-1.017-0.423c-0.267-0.282-0.398-0.667-0.398-1.156c0-0.518,0.133-0.918,0.4-1.205
		c0.267-0.286,0.618-0.429,1.054-0.429c0.38,0,0.688,0.112,0.926,0.336c0.141,0.133,0.247,0.324,0.317,0.573l-0.62,0.148
		c-0.037-0.161-0.114-0.289-0.23-0.382s-0.258-0.14-0.425-0.14c-0.23,0-0.418,0.083-0.561,0.248
		c-0.144,0.167-0.216,0.433-0.216,0.803c0,0.394,0.071,0.673,0.213,0.84c0.141,0.167,0.325,0.25,0.55,0.25
		c0.167,0,0.311-0.054,0.431-0.159S33.737,31.889,33.79,31.661z"/>
	<path fill="#FFFFFF" d="M34.937,32.804v-3.107h2.304v0.525h-1.677v0.688h1.561v0.524h-1.561v0.845H37.3v0.524H34.937z"/>
	<path fill="#FFFFFF" d="M37.835,32.804v-3.107h0.626v1.223h1.229v-1.223h0.627v3.107H39.69v-1.358h-1.229v1.358H37.835z"/>
	<path fill="#FFFFFF" d="M40.839,31.27c0-0.317,0.049-0.582,0.143-0.797c0.07-0.159,0.167-0.301,0.29-0.426
		c0.122-0.126,0.255-0.219,0.401-0.28c0.193-0.082,0.416-0.123,0.669-0.123c0.458,0,0.824,0.142,1.1,0.426
		c0.274,0.284,0.412,0.679,0.412,1.186c0,0.5-0.137,0.893-0.409,1.178c-0.273,0.282-0.638,0.424-1.094,0.424
		c-0.462,0-0.829-0.141-1.103-0.423C40.976,32.151,40.839,31.764,40.839,31.27z M41.485,31.248c0,0.352,0.082,0.618,0.245,0.8
		c0.161,0.182,0.367,0.272,0.618,0.272c0.25,0,0.455-0.09,0.616-0.271c0.159-0.181,0.24-0.45,0.24-0.811
		c0-0.356-0.078-0.622-0.234-0.797c-0.155-0.174-0.364-0.262-0.622-0.262c-0.26,0-0.467,0.088-0.625,0.266
		S41.485,30.89,41.485,31.248z"/>
	<path fill="#FFFFFF" d="M44.36,32.804v-3.082h0.627v2.558h1.56v0.524H44.36z"/>
	<path fill="#FFFFFF" d="M46.992,29.696h1.146c0.259,0,0.455,0.02,0.591,0.06c0.183,0.053,0.339,0.148,0.469,0.286
		c0.131,0.137,0.229,0.304,0.297,0.503c0.068,0.198,0.102,0.443,0.102,0.734c0,0.256-0.031,0.476-0.095,0.662
		c-0.078,0.226-0.188,0.409-0.333,0.548c-0.108,0.106-0.256,0.189-0.441,0.248c-0.138,0.044-0.322,0.066-0.555,0.066h-1.181V29.696z
		 M47.619,30.222v2.058h0.469c0.176,0,0.302-0.009,0.379-0.029c0.103-0.024,0.188-0.067,0.254-0.129
		c0.067-0.061,0.122-0.161,0.164-0.3s0.063-0.329,0.063-0.569s-0.021-0.425-0.063-0.554c-0.042-0.128-0.101-0.229-0.178-0.301
		c-0.076-0.072-0.173-0.121-0.291-0.146c-0.087-0.02-0.259-0.03-0.515-0.03H47.619z"/>
	<path fill="#FFFFFF" d="M50.129,32.804v-3.107h2.304v0.525h-1.677v0.688h1.561v0.524h-1.561v0.845h1.736v0.524H50.129z"/>
	<path fill="#FFFFFF" d="M53.026,32.804v-3.107h1.319c0.333,0,0.574,0.028,0.725,0.083c0.15,0.056,0.271,0.155,0.361,0.298
		c0.091,0.143,0.136,0.306,0.136,0.49c0,0.233-0.067,0.426-0.206,0.577c-0.137,0.152-0.341,0.248-0.614,0.288
		c0.137,0.079,0.248,0.166,0.336,0.26c0.089,0.096,0.207,0.263,0.357,0.505l0.38,0.606h-0.751l-0.453-0.677
		c-0.162-0.241-0.271-0.393-0.33-0.456c-0.06-0.062-0.123-0.105-0.19-0.13c-0.065-0.023-0.171-0.035-0.314-0.035h-0.127v1.298
		H53.026z M53.654,31.01h0.464c0.301,0,0.488-0.012,0.563-0.038c0.075-0.025,0.133-0.069,0.176-0.131
		c0.042-0.062,0.063-0.14,0.063-0.232c0-0.105-0.027-0.189-0.084-0.254c-0.055-0.065-0.134-0.105-0.236-0.122
		c-0.051-0.007-0.202-0.011-0.457-0.011h-0.489V31.01z"/>
</g>
</svg>
