<?xml version="1.0" encoding="utf-8"?>
<!-- Generator: Adobe Illustrator 15.0.0, SVG Export Plug-In . SVG Version: 6.00 Build 0)  -->
<!DOCTYPE svg PUBLIC "-//W3C//DTD SVG 1.1//EN" "http://www.w3.org/Graphics/SVG/1.1/DTD/svg11.dtd">
<svg version="1.1" id="Layer_1" xmlns="http://www.w3.org/2000/svg" xmlns:xlink="http://www.w3.org/1999/xlink" x="0px" y="0px"
	 width="120px" height="120px" viewBox="0 0 120 120" enable-background="new 0 0 120 120" xml:space="preserve">
<rect x="-2.5" y="-3.473" fill="#CCCCCC" width="124.488" height="125.446"/>
<g>
	<path fill="#FFFFFF" d="M11.78,62.346v-6.191h1.25v6.191H11.78z"/>
	<path fill="#FFFFFF" d="M14.204,62.346v-6.191h1.87l1.124,4.224l1.11-4.224h1.874v6.191h-1.161v-4.875l-1.228,4.875H16.59
		l-1.226-4.875v4.875H14.204z"/>
	<path fill="#FFFFFF" d="M27.006,62.346h-1.36l-0.541-1.407h-2.475l-0.511,1.407h-1.325l2.41-6.191h1.322L27.006,62.346z
		 M24.705,59.896l-0.854-2.297l-0.836,2.297H24.705z"/>
	<path fill="#FFFFFF" d="M30.547,60.069v-1.043h2.695v2.465c-0.262,0.254-0.641,0.476-1.138,0.67
		c-0.497,0.194-0.999,0.289-1.509,0.289c-0.648,0-1.211-0.136-1.693-0.407c-0.482-0.271-0.844-0.66-1.086-1.165
		c-0.242-0.504-0.362-1.055-0.362-1.649c0-0.645,0.134-1.217,0.404-1.719c0.27-0.5,0.666-0.884,1.187-1.152
		c0.397-0.206,0.891-0.308,1.483-0.308c0.768,0,1.368,0.161,1.8,0.483c0.433,0.321,0.71,0.767,0.835,1.336l-1.242,0.232
		c-0.086-0.305-0.25-0.544-0.492-0.719c-0.24-0.177-0.541-0.265-0.9-0.265c-0.547,0-0.981,0.173-1.303,0.519
		c-0.322,0.347-0.483,0.861-0.483,1.542c0,0.735,0.163,1.285,0.489,1.652c0.327,0.368,0.756,0.553,1.284,0.553
		c0.261,0,0.524-0.053,0.788-0.155c0.263-0.102,0.489-0.227,0.677-0.373v-0.785H30.547z"/>
	<path fill="#FFFFFF" d="M34.396,62.346v-6.191h4.589v1.046h-3.34v1.372h3.108v1.045h-3.108v1.684h3.458v1.044H34.396z"/>
	<path fill="#FFFFFF" d="M42.565,62.346v-6.191h2.005c0.76,0,1.255,0.032,1.485,0.093c0.356,0.094,0.652,0.294,0.891,0.606
		c0.24,0.311,0.36,0.713,0.36,1.206c0,0.38-0.069,0.699-0.208,0.958c-0.139,0.259-0.313,0.462-0.526,0.61
		c-0.212,0.148-0.428,0.246-0.647,0.292c-0.298,0.061-0.73,0.09-1.296,0.09h-0.815v2.335H42.565z M43.814,57.201v1.757h0.684
		c0.493,0,0.822-0.033,0.988-0.097c0.166-0.065,0.297-0.167,0.391-0.304c0.094-0.139,0.142-0.298,0.142-0.482
		c0-0.225-0.067-0.411-0.199-0.556c-0.133-0.147-0.299-0.238-0.503-0.275c-0.147-0.029-0.448-0.043-0.898-0.043H43.814z"/>
	<path fill="#FFFFFF" d="M48.366,62.346v-6.14h1.25v5.096h3.108v1.044H48.366z"/>
	<path fill="#FFFFFF" d="M59.196,62.346h-1.359l-0.54-1.407h-2.474l-0.512,1.407h-1.324l2.41-6.191h1.322L59.196,62.346z
		 M56.896,59.896l-0.852-2.297l-0.836,2.297H56.896z"/>
	<path fill="#FFFFFF" d="M63.82,60.069l1.212,0.384c-0.186,0.676-0.494,1.177-0.927,1.505c-0.432,0.327-0.979,0.491-1.645,0.491
		c-0.822,0-1.498-0.279-2.026-0.842c-0.531-0.562-0.795-1.329-0.795-2.304c0-1.03,0.266-1.83,0.798-2.4
		c0.531-0.569,1.231-0.855,2.099-0.855c0.758,0,1.371,0.224,1.846,0.67c0.28,0.266,0.492,0.646,0.632,1.141l-1.235,0.296
		c-0.073-0.322-0.228-0.575-0.459-0.761c-0.232-0.186-0.515-0.278-0.846-0.278c-0.461,0-0.833,0.165-1.118,0.494
		c-0.286,0.331-0.429,0.863-0.429,1.6c0,0.784,0.141,1.34,0.423,1.672c0.28,0.333,0.647,0.499,1.097,0.499
		c0.332,0,0.618-0.106,0.857-0.318C63.544,60.854,63.716,60.523,63.82,60.069z"/>
	<path fill="#FFFFFF" d="M66.104,62.346v-6.191h4.589v1.046h-3.34v1.372h3.108v1.045h-3.108v1.684h3.459v1.044H66.104z"/>
	<path fill="#FFFFFF" d="M71.878,62.346v-6.191h1.248v2.436h2.449v-2.436h1.249v6.191h-1.249v-2.708h-2.449v2.708H71.878z"/>
	<path fill="#FFFFFF" d="M77.863,59.289c0-0.632,0.096-1.16,0.283-1.588c0.14-0.316,0.333-0.599,0.577-0.849
		c0.243-0.251,0.509-0.437,0.8-0.558c0.386-0.163,0.83-0.245,1.334-0.245c0.912,0,1.642,0.283,2.189,0.848
		c0.548,0.566,0.821,1.353,0.821,2.361c0,0.998-0.271,1.78-0.814,2.346c-0.545,0.563-1.271,0.845-2.18,0.845
		c-0.92,0-1.652-0.279-2.196-0.842C78.136,61.046,77.863,60.273,77.863,59.289z M79.151,59.246c0,0.701,0.163,1.231,0.487,1.594
		c0.321,0.361,0.732,0.543,1.232,0.543c0.498,0,0.905-0.18,1.227-0.539c0.317-0.359,0.479-0.897,0.479-1.615
		c0-0.71-0.155-1.239-0.466-1.588c-0.311-0.348-0.726-0.523-1.239-0.523c-0.518,0-0.931,0.176-1.246,0.529
		S79.151,58.533,79.151,59.246z"/>
	<path fill="#FFFFFF" d="M84.878,62.346v-6.14h1.249v5.096h3.107v1.044H84.878z"/>
	<path fill="#FFFFFF" d="M90.121,56.155h2.284c0.516,0,0.907,0.039,1.178,0.119c0.363,0.106,0.675,0.296,0.934,0.57
		c0.26,0.273,0.457,0.606,0.591,1.002c0.137,0.395,0.203,0.883,0.203,1.463c0,0.51-0.062,0.948-0.19,1.318
		c-0.154,0.45-0.375,0.815-0.663,1.093c-0.215,0.212-0.51,0.376-0.878,0.493c-0.274,0.087-0.644,0.133-1.105,0.133h-2.353V56.155z
		 M91.37,57.201v4.101h0.934c0.35,0,0.601-0.019,0.756-0.059c0.204-0.05,0.372-0.136,0.505-0.258
		c0.134-0.121,0.243-0.321,0.327-0.597c0.084-0.277,0.127-0.656,0.127-1.134c0-0.478-0.043-0.845-0.127-1.103
		c-0.084-0.256-0.201-0.456-0.354-0.599c-0.152-0.143-0.344-0.24-0.579-0.291c-0.173-0.04-0.517-0.061-1.025-0.061H91.37z"/>
	<path fill="#FFFFFF" d="M96.37,62.346v-6.191h4.589v1.046h-3.34v1.372h3.108v1.045h-3.108v1.684h3.459v1.044H96.37z"/>
	<path fill="#FFFFFF" d="M102.143,62.346v-6.191h2.629c0.663,0,1.143,0.056,1.443,0.167c0.3,0.111,0.539,0.309,0.719,0.593
		c0.182,0.284,0.271,0.609,0.271,0.976c0,0.465-0.135,0.847-0.409,1.151c-0.273,0.302-0.681,0.493-1.225,0.572
		c0.271,0.157,0.493,0.331,0.67,0.518c0.177,0.19,0.412,0.523,0.711,1.006l0.757,1.208h-1.496l-0.902-1.348
		c-0.322-0.481-0.541-0.784-0.658-0.909c-0.118-0.125-0.244-0.211-0.378-0.259c-0.131-0.046-0.341-0.07-0.628-0.07h-0.253v2.585
		H102.143z M103.393,58.772h0.924c0.601,0,0.974-0.024,1.124-0.076c0.148-0.051,0.265-0.138,0.35-0.262
		c0.084-0.123,0.126-0.278,0.126-0.463c0-0.209-0.054-0.376-0.166-0.505c-0.11-0.129-0.268-0.209-0.471-0.243
		c-0.102-0.014-0.404-0.022-0.912-0.022h-0.975V58.772z"/>
</g>
</svg>
