<?xml version="1.0" encoding="utf-8"?>
<!-- Generator: Adobe Illustrator 15.0.0, SVG Export Plug-In . SVG Version: 6.00 Build 0)  -->
<!DOCTYPE svg PUBLIC "-//W3C//DTD SVG 1.1//EN" "http://www.w3.org/Graphics/SVG/1.1/DTD/svg11.dtd">
<svg version="1.1" id="Layer_1" xmlns="http://www.w3.org/2000/svg" xmlns:xlink="http://www.w3.org/1999/xlink" x="0px" y="0px"
	 width="70px" height="70px" viewBox="0 0 70 70" enable-background="new 0 0 70 70" xml:space="preserve">
<rect x="0.286" y="-0.473" fill="#CCCCCC" width="68.916" height="69.446"/>
<g>
	<path fill="#FFFFFF" d="M8.191,35.964v-3.427h0.692v3.427H8.191z"/>
	<path fill="#FFFFFF" d="M9.534,35.964v-3.427h1.035l0.622,2.338l0.615-2.338h1.037v3.427H12.2v-2.699l-0.68,2.699h-0.666
		l-0.679-2.699v2.699H9.534z"/>
	<path fill="#FFFFFF" d="M16.621,35.964h-0.752l-0.299-0.779h-1.37l-0.283,0.779h-0.733l1.334-3.427h0.732L16.621,35.964z
		 M15.347,34.607l-0.473-1.271l-0.463,1.271H15.347z"/>
	<path fill="#FFFFFF" d="M18.581,34.704v-0.578h1.492v1.365c-0.145,0.14-0.355,0.263-0.63,0.371c-0.275,0.107-0.553,0.16-0.835,0.16
		c-0.358,0-0.67-0.075-0.938-0.226c-0.267-0.149-0.467-0.365-0.601-0.645c-0.134-0.279-0.2-0.584-0.2-0.913
		c0-0.357,0.074-0.674,0.224-0.952c0.149-0.277,0.369-0.489,0.657-0.638c0.22-0.114,0.493-0.17,0.821-0.17
		c0.425,0,0.757,0.089,0.996,0.268c0.24,0.178,0.394,0.424,0.462,0.74l-0.688,0.128c-0.048-0.169-0.139-0.301-0.272-0.398
		c-0.133-0.098-0.3-0.146-0.499-0.146c-0.303,0-0.543,0.096-0.722,0.288c-0.178,0.192-0.267,0.477-0.267,0.853
		c0,0.407,0.09,0.711,0.271,0.915c0.181,0.204,0.418,0.306,0.711,0.306c0.145,0,0.29-0.029,0.436-0.086
		c0.146-0.056,0.271-0.125,0.375-0.207v-0.435H18.581z"/>
	<path fill="#FFFFFF" d="M20.711,35.964v-3.427h2.54v0.579h-1.849v0.759h1.721v0.579h-1.721v0.932h1.915v0.578H20.711z"/>
	<path fill="#FFFFFF" d="M25.234,35.964v-3.427h1.11c0.421,0,0.695,0.018,0.822,0.051c0.197,0.052,0.361,0.163,0.493,0.335
		c0.133,0.172,0.2,0.395,0.2,0.667c0,0.21-0.039,0.387-0.115,0.531c-0.077,0.144-0.173,0.256-0.292,0.337
		c-0.118,0.082-0.237,0.136-0.358,0.162c-0.165,0.034-0.404,0.05-0.718,0.05h-0.451v1.293H25.234z M25.926,33.116v0.973h0.378
		c0.273,0,0.455-0.018,0.547-0.053c0.092-0.036,0.165-0.092,0.216-0.168c0.052-0.077,0.079-0.165,0.079-0.267
		c0-0.124-0.037-0.228-0.11-0.308c-0.073-0.082-0.166-0.132-0.278-0.152c-0.082-0.016-0.248-0.024-0.498-0.024H25.926z"/>
	<path fill="#FFFFFF" d="M28.445,35.964v-3.399h0.692v2.821h1.721v0.578H28.445z"/>
	<path fill="#FFFFFF" d="M34.441,35.964h-0.752l-0.299-0.779h-1.37l-0.283,0.779h-0.733l1.334-3.427h0.731L34.441,35.964z
		 M33.167,34.607l-0.472-1.271l-0.463,1.271H33.167z"/>
	<path fill="#FFFFFF" d="M37.001,34.704l0.671,0.212c-0.103,0.375-0.273,0.652-0.514,0.834c-0.238,0.181-0.542,0.271-0.91,0.271
		c-0.455,0-0.829-0.154-1.122-0.466c-0.294-0.312-0.44-0.736-0.44-1.275c0-0.57,0.147-1.013,0.442-1.329s0.682-0.473,1.162-0.473
		c0.42,0,0.76,0.124,1.022,0.371c0.154,0.147,0.272,0.357,0.35,0.631l-0.685,0.164c-0.04-0.178-0.126-0.318-0.254-0.421
		c-0.128-0.103-0.284-0.154-0.468-0.154c-0.255,0-0.461,0.091-0.619,0.273c-0.158,0.183-0.237,0.478-0.237,0.886
		c0,0.434,0.078,0.742,0.234,0.926c0.155,0.185,0.358,0.276,0.606,0.276c0.185,0,0.343-0.059,0.475-0.176
		C36.848,35.138,36.942,34.955,37.001,34.704z"/>
	<path fill="#FFFFFF" d="M38.266,35.964v-3.427h2.54v0.579h-1.849v0.759h1.721v0.579h-1.721v0.932h1.914v0.578H38.266z"/>
	<path fill="#FFFFFF" d="M41.461,35.964v-3.427h0.691v1.348h1.355v-1.348h0.691v3.427h-0.691v-1.499h-1.355v1.499H41.461z"/>
	<path fill="#FFFFFF" d="M44.774,34.271c0-0.35,0.054-0.642,0.157-0.879c0.077-0.175,0.185-0.332,0.319-0.47
		c0.135-0.139,0.281-0.242,0.442-0.309c0.214-0.09,0.46-0.135,0.739-0.135c0.505,0,0.908,0.156,1.212,0.469
		c0.303,0.313,0.454,0.749,0.454,1.307c0,0.552-0.15,0.985-0.45,1.299c-0.302,0.312-0.704,0.468-1.207,0.468
		c-0.509,0-0.915-0.154-1.216-0.466C44.926,35.244,44.774,34.816,44.774,34.271z M45.488,34.248c0,0.388,0.09,0.682,0.27,0.882
		c0.178,0.2,0.405,0.301,0.682,0.301s0.502-0.1,0.68-0.298c0.176-0.199,0.265-0.497,0.265-0.894c0-0.393-0.086-0.686-0.258-0.879
		c-0.172-0.192-0.401-0.29-0.687-0.29c-0.286,0-0.515,0.098-0.689,0.293C45.575,33.558,45.488,33.853,45.488,34.248z"/>
	<path fill="#FFFFFF" d="M48.658,35.964v-3.399h0.691v2.821h1.72v0.578H48.658z"/>
	<path fill="#FFFFFF" d="M51.561,32.537h1.265c0.285,0,0.502,0.021,0.652,0.065c0.2,0.059,0.373,0.164,0.517,0.315
		s0.253,0.336,0.327,0.555c0.075,0.219,0.112,0.489,0.112,0.81c0,0.282-0.035,0.525-0.105,0.73
		c-0.086,0.249-0.208,0.451-0.367,0.605c-0.119,0.117-0.282,0.208-0.486,0.272c-0.151,0.049-0.356,0.074-0.611,0.074h-1.303V32.537z
		 M52.252,33.116v2.27h0.517c0.194,0,0.333-0.01,0.419-0.032c0.113-0.028,0.206-0.075,0.279-0.143
		c0.074-0.067,0.135-0.178,0.181-0.331c0.047-0.153,0.07-0.363,0.07-0.628c0-0.264-0.023-0.468-0.07-0.61
		c-0.046-0.142-0.111-0.252-0.196-0.332c-0.084-0.079-0.189-0.133-0.32-0.161c-0.096-0.022-0.286-0.034-0.567-0.034H52.252z"/>
	<path fill="#FFFFFF" d="M55.02,35.964v-3.427h2.541v0.579h-1.849v0.759h1.721v0.579h-1.721v0.932h1.914v0.578H55.02z"/>
	<path fill="#FFFFFF" d="M58.216,35.964v-3.427h1.455c0.367,0,0.633,0.031,0.799,0.092s0.299,0.171,0.398,0.328
		c0.101,0.158,0.149,0.337,0.149,0.541c0,0.257-0.074,0.469-0.227,0.637c-0.151,0.167-0.377,0.273-0.678,0.317
		c0.15,0.087,0.272,0.183,0.371,0.287c0.098,0.105,0.228,0.29,0.394,0.557l0.419,0.669h-0.828l-0.5-0.746
		c-0.179-0.267-0.3-0.434-0.364-0.503c-0.065-0.069-0.135-0.117-0.209-0.144c-0.072-0.025-0.189-0.039-0.348-0.039h-0.141v1.432
		H58.216z M58.907,33.985h0.512c0.333,0,0.539-0.013,0.622-0.042c0.082-0.028,0.146-0.076,0.193-0.145
		c0.047-0.068,0.07-0.154,0.07-0.256c0-0.116-0.03-0.208-0.092-0.279c-0.062-0.072-0.148-0.116-0.261-0.135
		c-0.057-0.008-0.224-0.012-0.505-0.012h-0.54V33.985z"/>
</g>
</svg>
